<?xml version="1.0" encoding="UTF-8" standalone="no"?>
<!DOCTYPE svg PUBLIC "-//W3C//DTD SVG 1.1//EN" "http://www.w3.org/Graphics/SVG/1.1/DTD/svg11.dtd">
<svg version="1.1" xmlns="http://www.w3.org/2000/svg" xmlns:xlink="http://www.w3.org/1999/xlink" preserveAspectRatio="xMidYMid meet" viewBox="0 0 300 300" width="300" height="300"><defs><path d="M300 39.85C300 91.88 300 208.12 300 260.15C300 282.16 282.16 300 260.15 300C208.12 300 91.88 300 39.85 300C17.84 300 0 282.16 0 260.15C0 208.12 0 91.88 0 39.85C0 17.84 17.84 0 39.85 0C91.88 0 208.12 0 260.15 0C282.16 0 300 17.84 300 39.85Z" id="cfi0QwGkX"></path><path d="M300 39.85C300 91.88 300 208.12 300 260.15C300 282.16 282.16 300 260.15 300C208.12 300 91.88 300 39.85 300C17.84 300 0 282.16 0 260.15C0 208.12 0 91.88 0 39.85C0 17.84 17.84 0 39.85 0C91.88 0 208.12 0 260.15 0C282.16 0 300 17.84 300 39.85Z" id="bUh3OM5GF"></path><text id="mi2lxrRBy" x="152.18" y="162.18" font-size="40" font-family="Noto Sans" font-weight="700" font-style="normal" letter-spacing="0" alignment-baseline="before-edge" transform="matrix(1 0 0 1 -122.55057674714894 -176.88218390804593)" style="line-height:100%" xml:space="preserve" dominant-baseline="text-before-edge"><tspan x="152.18" dy="0em" alignment-baseline="before-edge" dominant-baseline="text-before-edge" text-anchor="start">　</tspan></text><text id="d1N2ZmwJSr" x="152.18" y="162.18" font-size="40" font-family="Noto Sans" font-weight="700" font-style="normal" letter-spacing="0" alignment-baseline="before-edge" transform="matrix(1 0 0 1 -122.55057674714894 -114.1810344827586)" style="line-height:100%" xml:space="preserve" dominant-baseline="text-before-edge"><tspan x="152.18" dy="0em" alignment-baseline="before-edge" dominant-baseline="text-before-edge" text-anchor="start">　</tspan></text><text id="l1R5ZmUkj" x="152.18" y="162.18" font-size="40" font-family="Noto Sans" font-weight="700" font-style="normal" letter-spacing="0" alignment-baseline="before-edge" transform="matrix(1 0 0 1 -122.55057674714894 17.514367816091976)" style="line-height:100%" xml:space="preserve" dominant-baseline="text-before-edge"><tspan x="152.18" dy="0em" alignment-baseline="before-edge" dominant-baseline="text-before-edge" text-anchor="start">　</tspan></text><path d="M280 150C280 221.75 221.75 280 150 280C78.25 280 20 221.75 20 150C20 78.25 78.25 20 150 20C221.75 20 280 78.25 280 150Z" id="b5unrMEvy0"></path><path d="M125.98 117.25C125.98 128.29 117.02 137.25 105.98 137.25C94.95 137.25 85.98 128.29 85.98 117.25C85.98 106.21 94.95 97.25 105.98 97.25C117.02 97.25 125.98 106.21 125.98 117.25Z" id="cwqqHXCRy"></path><path d="M217.5 116.77C217.5 127.8 208.54 136.77 197.5 136.77C186.46 136.77 177.5 127.8 177.5 116.77C177.5 105.73 186.46 96.77 197.5 96.77C208.54 96.77 217.5 105.73 217.5 116.77Z" id="c4sCfUxjXo"></path><path d="M225 196.67L75 196.67" id="b2MokQ8ikJ"></path></defs><g><g><g><use xlink:href="#cfi0QwGkX" opacity="1" fill="#ffffff" fill-opacity="1"></use><g><use xlink:href="#cfi0QwGkX" opacity="1" fill-opacity="0" stroke="#000000" stroke-width="1" stroke-opacity="0"></use></g></g><g><use xlink:href="#bUh3OM5GF" opacity="1" fill="#4a154b" fill-opacity="1"></use><g><use xlink:href="#bUh3OM5GF" opacity="1" fill-opacity="0" stroke="#030303" stroke-width="2" stroke-opacity="1"></use></g></g><g id="a1IOOZm5zY"><use xlink:href="#mi2lxrRBy" opacity="1" fill="#36c5f0" fill-opacity="1"></use></g><g id="a1pbcn6CP6"><use xlink:href="#d1N2ZmwJSr" opacity="1" fill="#ecb22e" fill-opacity="1"></use></g><g id="bg1xPnRGK"><use xlink:href="#l1R5ZmUkj" opacity="1" fill="#e01e5a" fill-opacity="1"></use></g><g><use xlink:href="#b5unrMEvy0" opacity="1" fill="#ffffff" fill-opacity="1"></use><g><use xlink:href="#b5unrMEvy0" opacity="1" fill-opacity="0" stroke="#2eb67d" stroke-width="20" stroke-opacity="1"></use></g></g><g><use xlink:href="#cwqqHXCRy" opacity="1" fill="#ecb22e" fill-opacity="1"></use><g><use xlink:href="#cwqqHXCRy" opacity="1" fill-opacity="0" stroke="#ecb22e" stroke-width="20" stroke-opacity="1"></use></g></g><g><use xlink:href="#c4sCfUxjXo" opacity="1" fill="#35c5f0" fill-opacity="1"></use><g><use xlink:href="#c4sCfUxjXo" opacity="1" fill-opacity="0" stroke="#35c5f0" stroke-width="20" stroke-opacity="1"></use></g></g><g><g><use xlink:href="#b2MokQ8ikJ" opacity="1" fill-opacity="0" stroke="#e01e5a" stroke-width="20" stroke-opacity="1"></use></g></g></g></g></svg>
